<?xml version="1.0" encoding="UTF-8"?>
<svg width="1014px" height="111px" viewBox="0 0 1014 111" version="1.1" xmlns="http://www.w3.org/2000/svg" xmlns:xlink="http://www.w3.org/1999/xlink">
    <!-- Generator: Sketch 52.2 (67145) - http://www.bohemiancoding.com/sketch -->
    <title>Logo</title>
    <desc>Created with Sketch.</desc>
    <defs>
        <radialGradient cx="98.7985294%" cy="97.9036527%" fx="98.7985294%" fy="97.9036527%" r="325.466912%" gradientTransform="translate(0.987985,0.979037),scale(1.000000,0.723081),translate(-0.987985,-0.979037)" id="radialGradient-1">
            <stop stop-color="#BF360C" stop-opacity="0.2" offset="0%"></stop>
            <stop stop-color="#BF360C" stop-opacity="0.02" offset="100%"></stop>
        </radialGradient>
        <radialGradient cx="162.571513%" cy="157.70665%" fx="162.571513%" fy="157.70665%" r="262.641554%" gradientTransform="translate(1.625715,1.577067),scale(1.000000,0.696193),translate(-1.625715,-1.577067)" id="radialGradient-2">
            <stop stop-color="#263238" stop-opacity="0.2" offset="0%"></stop>
            <stop stop-color="#263238" stop-opacity="0.02" offset="100%"></stop>
        </radialGradient>
        <radialGradient cx="-1.24996094%" cy="0.78125%" fx="-1.24996094%" fy="0.78125%" r="167.932627%" gradientTransform="translate(-0.012500,0.007812),scale(1.000000,0.627731),translate(0.012500,-0.007812)" id="radialGradient-3">
            <stop stop-color="#FFFFFF" stop-opacity="0.1" offset="0%"></stop>
            <stop stop-color="#FFFFFF" stop-opacity="0" offset="100%"></stop>
        </radialGradient>
    </defs>
    <g id="Logo" stroke="none" stroke-width="1" fill="none" fill-rule="evenodd">
        <g id="Horizontal-Logo-Copy" transform="translate(-276.000000, -358.000000)">
            <g id="Logo" transform="translate(276.000000, 358.000000)">
                <path d="M434.68,61.2 L434.68,96 L423.64,96 L423.64,10.08 L452.92,10.08 C460.360037,10.08 466.679974,12.5599752 471.88,17.52 C477.160026,22.4800248 479.8,28.5199644 479.8,35.64 C479.8,42.9200364 477.160026,48.9999756 471.88,53.88 C466.759974,58.7600244 460.440038,61.2 452.92,61.2 L434.68,61.2 Z M434.68,20.64 L434.68,50.64 L453.16,50.64 C457.560022,50.64 461.199986,49.1600148 464.08,46.2 C467.040015,43.2399852 468.52,39.7200204 468.52,35.64 C468.52,31.63998 467.040015,28.1600148 464.08,25.2 C461.199986,22.1599848 457.560022,20.64 453.16,20.64 L434.68,20.64 Z M486.04,66.6 C486.04,57.5599548 488.879972,50.0800296 494.56,44.16 C500.320029,38.2399704 507.559956,35.28 516.28,35.28 C525.000044,35.28 532.199972,38.2399704 537.88,44.16 C543.640029,50.0800296 546.52,57.5599548 546.52,66.6 C546.52,75.7200456 543.640029,83.1999708 537.88,89.04 C532.199972,94.9600296 525.000044,97.92 516.28,97.92 C507.559956,97.92 500.320029,94.9600296 494.56,89.04 C488.879972,83.1199704 486.04,75.6400452 486.04,66.6 Z M497.08,66.6 C497.08,72.9200316 498.919982,78.0399804 502.6,81.96 C506.280018,85.8800196 510.839973,87.84 516.28,87.84 C521.720027,87.84 526.279982,85.8800196 529.96,81.96 C533.640018,78.0399804 535.48,72.9200316 535.48,66.6 C535.48,60.3599688 533.640018,55.2800196 529.96,51.36 C526.199981,47.35998 521.640027,45.36 516.28,45.36 C510.919973,45.36 506.360019,47.35998 502.6,51.36 C498.919982,55.2800196 497.08,60.3599688 497.08,66.6 Z M556.6,37.2 L567.16,37.2 L567.16,45.36 L567.64,45.36 C569.320008,42.4799856 571.899983,40.0800096 575.38,38.16 C578.860017,36.2399904 582.479981,35.28 586.24,35.28 C593.440036,35.28 598.979981,37.3399794 602.86,41.46 C606.740019,45.5800206 608.68,51.439962 608.68,59.04 L608.68,96 L597.64,96 L597.64,59.76 C597.399999,50.159952 592.560047,45.36 583.12,45.36 C578.719978,45.36 575.040015,47.1399822 572.08,50.7 C569.119985,54.2600178 567.64,58.5199752 567.64,63.48 L567.64,96 L556.6,96 L556.6,37.2 Z M644.92,96.96 C640.119976,96.96 636.140016,95.4800148 632.98,92.52 C629.819984,89.5599852 628.2,85.4400264 628.12,80.16 L628.12,47.28 L617.8,47.28 L617.8,37.2 L628.12,37.2 L628.12,19.2 L639.16,19.2 L639.16,37.2 L653.56,37.2 L653.56,47.28 L639.16,47.28 L639.16,76.56 C639.16,80.4800196 639.919992,83.139993 641.44,84.54 C642.960008,85.940007 644.67999,86.64 646.6,86.64 C647.480004,86.64 648.339996,86.540001 649.18,86.34 C650.020004,86.139999 650.799996,85.8800016 651.52,85.56 L655,95.4 C652.119986,96.4400052 648.760019,96.96 644.92,96.96 Z M690.52,97.92 C681.879957,97.92 674.760028,94.9600296 669.16,89.04 C663.559972,83.1199704 660.76,75.6400452 660.76,66.6 C660.76,57.6399552 663.479973,50.1800298 668.92,44.22 C674.360027,38.2599702 681.319958,35.28 689.8,35.28 C698.520044,35.28 705.459974,38.0999718 710.62,43.74 C715.780026,49.3800282 718.36,57.2799492 718.36,67.44 L718.24,68.64 L672.04,68.64 C672.200001,74.4000288 674.119982,79.0399824 677.8,82.56 C681.480018,86.0800176 685.879974,87.84 691,87.84 C698.040035,87.84 703.55998,84.3200352 707.56,77.28 L717.4,82.08 C714.759987,87.0400248 711.100023,90.919986 706.42,93.72 C701.739977,96.520014 696.44003,97.92 690.52,97.92 Z M672.88,59.52 L706.6,59.52 C706.279998,55.4399796 704.620015,52.0600134 701.62,49.38 C698.619985,46.6999866 694.600025,45.36 689.56,45.36 C685.399979,45.36 681.820015,46.6399872 678.82,49.2 C675.819985,51.7600128 673.840005,55.1999784 672.88,59.52 Z M757,96 L745.96,96 L722.2,37.2 L734.2,37.2 L751.48,82.8 L751.72,82.8 L769.24,37.2 L781,37.2 L757,96 Z M814.6,97.92 C805.959957,97.92 798.840028,94.9600296 793.24,89.04 C787.639972,83.1199704 784.84,75.6400452 784.84,66.6 C784.84,57.6399552 787.559973,50.1800298 793,44.22 C798.440027,38.2599702 805.399958,35.28 813.88,35.28 C822.600044,35.28 829.539974,38.0999718 834.7,43.74 C839.860026,49.3800282 842.44,57.2799492 842.44,67.44 L842.32,68.64 L796.12,68.64 C796.280001,74.4000288 798.199982,79.0399824 801.88,82.56 C805.560018,86.0800176 809.959974,87.84 815.08,87.84 C822.120035,87.84 827.63998,84.3200352 831.64,77.28 L841.48,82.08 C838.839987,87.0400248 835.180023,90.919986 830.5,93.72 C825.819977,96.520014 820.52003,97.92 814.6,97.92 Z M796.96,59.52 L830.68,59.52 C830.359998,55.4399796 828.700015,52.0600134 825.7,49.38 C822.699985,46.6999866 818.680025,45.36 813.64,45.36 C809.479979,45.36 805.900015,46.6399872 802.9,49.2 C799.899985,51.7600128 797.920005,55.1999784 796.96,59.52 Z M878.92,87.84 C884.360027,87.84 888.799983,85.8800196 892.24,81.96 C895.840018,78.0399804 897.64,72.9200316 897.64,66.6 C897.64,60.4399692 895.840018,55.36002 892.24,51.36 C888.719982,47.35998 884.280027,45.36 878.92,45.36 C873.639974,45.36 869.200018,47.35998 865.6,51.36 C861.999982,55.36002 860.2,60.4399692 860.2,66.6 C860.2,72.8400312 861.999982,77.9199804 865.6,81.84 C869.200018,85.84002 873.639974,87.84 878.92,87.84 Z M877.12,97.92 C869.439962,97.92 862.840028,94.8800304 857.32,88.8 C851.879973,82.6399692 849.16,75.2400432 849.16,66.6 C849.16,57.9599568 851.879973,50.5600308 857.32,44.4 C862.840028,38.3199696 869.439962,35.28 877.12,35.28 C881.440022,35.28 885.379982,36.1999908 888.94,38.04 C892.500018,39.8800092 895.23999,42.3199848 897.16,45.36 L897.64,45.36 L897.16,37.2 L897.16,10.08 L908.2,10.08 L908.2,96 L897.64,96 L897.64,87.84 L897.16,87.84 C895.23999,90.8800152 892.500018,93.3199908 888.94,95.16 C885.379982,97.0000092 881.440022,97.92 877.12,97.92 Z M932.68,96 L921.64,96 L921.64,37.2 L932.2,37.2 L932.2,46.8 L932.68,46.8 C933.800006,43.6799844 936.099983,41.020011 939.58,38.82 C943.060017,36.619989 946.479983,35.52 949.84,35.52 C953.040016,35.52 955.759989,35.9999952 958,36.96 L954.64,47.64 C953.279993,47.0799972 951.120015,46.8 948.16,46.8 C943.999979,46.8 940.380015,48.4799832 937.3,51.84 C934.219985,55.2000168 932.68,59.1199776 932.68,63.6 L932.68,96 Z M973.24,78 C973.24,80.8800144 974.459988,83.2799904 976.9,85.2 C979.340012,87.1200096 982.199984,88.08 985.48,88.08 C990.120023,88.08 994.259982,86.3600172 997.9,82.92 C1001.54002,79.4799828 1003.36,75.4400232 1003.36,70.8 C999.919983,68.0799864 995.120031,66.72 988.96,66.72 C984.479978,66.72 980.740015,67.7999892 977.74,69.96 C974.739985,72.1200108 973.24,74.799984 973.24,78 Z M987.52,35.28 C995.680041,35.28 1002.11998,37.4599782 1006.84,41.82 C1011.56002,46.1800218 1013.92,52.159962 1013.92,59.76 L1013.92,96 L1003.36,96 L1003.36,87.84 L1002.88,87.84 C998.319977,94.5600336 992.240038,97.92 984.64,97.92 C978.159968,97.92 972.740022,96.0000192 968.38,92.16 C964.019978,88.3199808 961.84,83.5200288 961.84,77.76 C961.84,71.6799696 964.139977,66.840018 968.74,63.24 C973.340023,59.639982 979.479962,57.84 987.16,57.84 C993.720033,57.84 999.119979,59.039988 1003.36,61.44 L1003.36,58.92 C1003.36,55.0799808 1001.84002,51.8200134 998.8,49.14 C995.759985,46.4599866 992.20002,45.12 988.12,45.12 C981.959969,45.12 977.080018,47.719974 973.48,52.92 L963.76,46.8 C969.120027,39.1199616 977.039948,35.28 987.52,35.28 Z" id="Pontevedra" fill="#757575"></path>
                <g id="GDG-Logo">
                    <g id="XMLID_50_">
                        <g id="XMLID_72_">
                            <path d="M68.5567901,50.1393023 L39.5716049,0.232325581 L0.812345679,0.232325581 L32.8049383,55.302093 L0.812345679,110.37186 L39.5716049,110.37186 L68.5567901,60.4648837 C70.4148148,57.2725581 70.4148148,53.3316279 68.5567901,50.1393023 Z" id="Shape"></path>
                            <polygon id="XMLID_80_" fill="#FFC107" fill-rule="nonzero" points="51.9296296 88.232093 42.7432099 72.4081395 20.6888889 110.37186 39.5716049 110.37186 52.1802469 88.6623256"></polygon>
                            <path d="M68.5567901,50.1393023 L39.5716049,0.232325581 L0.812345679,0.232325581 L32.8049383,55.302093 L0.812345679,110.37186 L39.5716049,110.37186 L68.5567901,60.4648837 C70.4148148,57.2725581 70.4148148,53.3316279 68.5567901,50.1393023 Z" id="Shape"></path>
                            <polygon id="Shape" fill="#0F9D58" fill-rule="nonzero" points="32.8049383 55.302093 42.7432099 72.4081395 20.6888889 110.37186 0.812345679 110.37186"></polygon>
                            <path d="M68.5567901,50.1393023 L39.5716049,0.232325581 L0.812345679,0.232325581 L32.8049383,55.302093 L0.812345679,110.37186 L39.5716049,110.37186 L68.5567901,60.4648837 C70.4148148,57.2725581 70.4148148,53.3316279 68.5567901,50.1393023 Z" id="Shape"></path>
                            <polygon id="Shape" fill="#BF360C" fill-rule="nonzero" opacity="0.2" points="39.5716049 109.511395 21.1901235 109.511395 20.6888889 110.37186 39.5716049 110.37186 52.1802469 88.6623256 51.9296296 88.232093"></polygon>
                            <path d="M68.5567901,50.1393023 L39.5716049,0.232325581 L0.812345679,0.232325581 L32.8049383,55.302093 L0.812345679,110.37186 L39.5716049,110.37186 L68.5567901,60.4648837 C70.4148148,57.2725581 70.4148148,53.3316279 68.5567901,50.1393023 Z" id="Shape"></path>
                            <polygon id="Shape" fill="#263238" fill-rule="nonzero" opacity="0.2" points="1.31358025 109.511395 0.812345679 110.37186 20.6888889 110.37186 21.1901235 109.511395"></polygon>
                            <path d="M68.5567901,50.1393023 L39.5716049,0.232325581 L0.812345679,0.232325581 L32.8049383,55.302093 L0.812345679,110.37186 L39.5716049,110.37186 L68.5567901,60.4648837 C70.4148148,57.2725581 70.4148148,53.3316279 68.5567901,50.1393023 Z" id="Shape"></path>
                            <polygon id="Shape" fill="#FFFFFF" fill-rule="nonzero" opacity="0.2" points="0.812345679 110.37186 1.31358025 110.37186 33.0555556 55.7323256 32.8049383 55.302093"></polygon>
                            <path d="M68.5567901,50.1393023 L39.5716049,0.232325581 L0.812345679,0.232325581 L32.8049383,55.302093 L0.812345679,110.37186 L39.5716049,110.37186 L68.5567901,60.4648837 C70.4148148,57.2725581 70.4148148,53.3316279 68.5567901,50.1393023 Z" id="Shape"></path>
                            <polygon id="XMLID_79_" fill="url(#radialGradient-1)" fill-rule="nonzero" points="52.1802469 88.6623256 52.1802469 88.6623256 42.7432099 72.4081395 40.4271605 76.392093"></polygon>
                            <path d="M68.5567901,50.1393023 L39.5716049,0.232325581 L0.812345679,0.232325581 L32.8049383,55.302093 L0.812345679,110.37186 L39.5716049,110.37186 L68.5567901,60.4648837 C70.4148148,57.2725581 70.4148148,53.3316279 68.5567901,50.1393023 Z" id="Shape"></path>
                            <polygon id="XMLID_78_" fill="url(#radialGradient-2)" fill-rule="nonzero" points="40.4271605 76.392093 42.7432099 72.4081395 32.8049383 55.302093 28.0604938 63.4765116"></polygon>
                            <path d="M68.5567901,50.1393023 L39.5716049,0.232325581 L0.812345679,0.232325581 L32.8049383,55.302093 L0.812345679,110.37186 L39.5716049,110.37186 L68.5567901,60.4648837 C70.4148148,57.2725581 70.4148148,53.3316279 68.5567901,50.1393023 Z" id="Shape"></path>
                            <g id="XMLID_75_" fill="#4285F4" fill-rule="nonzero">
                                <g id="XMLID_76_">
                                    <polygon id="XMLID_77_" points="20.6888889 0.232325581 0.812345679 0.232325581 52.1802469 88.6623256 62.1098765 71.5648837 62.1185185 71.5476744"></polygon>
                                </g>
                            </g>
                            <path d="M68.5567901,50.1393023 L39.5716049,0.232325581 L0.812345679,0.232325581 L32.8049383,55.302093 L0.812345679,110.37186 L39.5716049,110.37186 L68.5567901,60.4648837 C70.4148148,57.2725581 70.4148148,53.3316279 68.5567901,50.1393023 Z" id="Shape"></path>
                            <path d="M68.5567901,60.4648837 C70.4148148,57.2725581 70.4148148,53.3316279 68.5567901,50.1393023 L39.5716049,0.232325581 L20.6888889,0.232325581 L62.1185185,71.5476744 L68.5567901,60.4648837 Z" id="Shape" fill="#DB4437" fill-rule="nonzero"></path>
                            <path d="M68.5567901,50.1393023 L39.5716049,0.232325581 L0.812345679,0.232325581 L32.8049383,55.302093 L0.812345679,110.37186 L39.5716049,110.37186 L68.5567901,60.4648837 C70.4148148,57.2725581 70.4148148,53.3316279 68.5567901,50.1393023 Z" id="Shape"></path>
                            <polygon id="Shape" fill="#1A237E" fill-rule="nonzero" opacity="0.2" points="62.1185185 71.5476744 61.8679012 71.1260465 52.1802469 87.8018605 1.31358025 0.232325581 0.812345679 0.232325581 52.1802469 88.6623256 62.1098765 71.5648837"></polygon>
                            <path d="M68.5567901,50.1393023 L39.5716049,0.232325581 L0.812345679,0.232325581 L32.8049383,55.302093 L0.812345679,110.37186 L39.5716049,110.37186 L68.5567901,60.4648837 C70.4148148,57.2725581 70.4148148,53.3316279 68.5567901,50.1393023 Z" id="Shape"></path>
                            <path d="M39.5716049,1.0927907 L68.5567901,50.9997674 C69.4123457,52.4711628 69.8530864,54.0974419 69.9222222,55.7323256 C70,53.8048837 69.5592593,51.8602326 68.5567901,50.1393023 L39.5716049,0.232325581 L0.812345679,0.232325581 L1.31358025,1.0927907 L39.5716049,1.0927907 Z" id="Shape" fill="#FFFFFF" fill-rule="nonzero" opacity="0.2"></path>
                            <path d="M68.5567901,50.1393023 L39.5716049,0.232325581 L0.812345679,0.232325581 L32.8049383,55.302093 L0.812345679,110.37186 L39.5716049,110.37186 L68.5567901,60.4648837 C70.4148148,57.2725581 70.4148148,53.3316279 68.5567901,50.1393023 Z" id="Shape"></path>
                            <path d="M62.1185185,71.5476744 L68.5567901,60.4648837 C69.5592593,58.7439535 70,56.7993023 69.9222222,54.8718605 C69.8530864,56.5067442 69.4123457,58.1330233 68.5567901,59.6044186 L61.8679012,71.1260465 L62.1185185,71.5476744 Z" id="XMLID_74_" fill="#3E2723" fill-rule="nonzero" opacity="0.2"></path>
                            <path d="M68.5567901,50.1393023 L39.5716049,0.232325581 L0.812345679,0.232325581 L32.8049383,55.302093 L0.812345679,110.37186 L39.5716049,110.37186 L68.5567901,60.4648837 C70.4148148,57.2725581 70.4148148,53.3316279 68.5567901,50.1393023 Z" id="Shape"></path>
                            <path d="M68.5567901,50.1393023 L39.5716049,0.232325581 L0.812345679,0.232325581 L32.8049383,55.302093 L0.812345679,110.37186 L39.5716049,110.37186 L68.5567901,60.4648837 C70.4148148,57.2725581 70.4148148,53.3316279 68.5567901,50.1393023 Z" id="XMLID_73_" fill="url(#radialGradient-3)" fill-rule="nonzero"></path>
                        </g>
                    </g>
                    <g id="XMLID_8_" opacity="0.54" transform="translate(110.000000, 7.000000)">
                        <path d="M99.3411003,2.97954545 L125.682848,2.97954545 C152.506667,2.97954545 169.344725,20.8395455 169.344725,45.9022727 C169.344725,71.0772727 152.498058,88.825 125.682848,88.825 L99.3411003,88.825 L99.3411003,2.97954545 Z M126.139094,75.8186364 C144.810744,75.8186364 156.380453,65.4204545 156.380453,45.9022727 C156.380453,26.4963636 144.810744,15.9859091 126.139094,15.9859091 L112.305372,15.9859091 L112.305372,75.8186364 L126.139094,75.8186364 Z" id="XMLID_104_" fill="#000000" fill-rule="nonzero"></path>
                        <polygon id="XMLID_103_" points="0.34433657 0.734090909 264.820647 0.734090909 264.820647 94.3868182 0.34433657 94.3868182"></polygon>
                        <path d="M88.5203236,42.0072727 L47.4840129,42.0072727 L47.4840129,54.7545455 L76.4168932,54.7545455 C75.4613592,61.2577273 73.2145631,66.3272727 69.8486731,69.7127273 C65.5616828,74.0136364 58.8643366,78.7463636 47.1138511,78.7463636 C28.9931392,78.7463636 14.8236893,64.0904545 14.8236893,45.9109091 C14.8236893,27.7313636 28.9931392,13.0754545 47.1138511,13.0754545 C56.8844013,13.0754545 64.0293851,16.9359091 69.2977346,21.8931818 L77.9750162,13.1877273 C70.614822,6.13181818 60.8442718,0.734090909 47.1138511,0.734090909 C22.2957929,0.734090909 1.42899676,21.0036364 1.42899676,45.9109091 C1.42899676,70.8095455 22.2957929,91.0877273 47.1138511,91.0877273 C60.5085437,91.0877273 70.614822,86.6831818 78.5259547,78.4181818 C86.6522977,70.2654545 89.1831715,58.805 89.1831715,49.5468182 C89.1831715,46.6795455 88.9593528,44.2095455 88.5203236,42.0072727 Z" id="XMLID_102_" fill="#000000" fill-rule="nonzero"></path>
                        <path d="M264.837864,42.0072727 L223.801553,42.0072727 L223.801553,54.7545455 L252.734434,54.7545455 C251.7789,61.2577273 249.532104,66.3272727 246.166214,69.7127273 C241.879223,74.0136364 235.181877,78.7463636 223.431392,78.7463636 C205.31068,78.7463636 191.14123,64.0904545 191.14123,45.9109091 C191.14123,27.7313636 205.31068,13.0754545 223.431392,13.0754545 C233.201942,13.0754545 240.346926,16.9359091 245.615275,21.8931818 L254.292557,13.1877273 C246.932362,6.13181818 237.161812,0.734090909 223.431392,0.734090909 C198.613333,0.734090909 177.746537,21.0036364 177.746537,45.9109091 C177.746537,70.8095455 198.613333,91.0877273 223.431392,91.0877273 C236.826084,91.0877273 246.932362,86.6831818 254.843495,78.4181818 C262.969838,70.2654545 265.500712,58.805 265.500712,49.5468182 C265.500712,46.6795455 265.276893,44.2095455 264.837864,42.0072727 Z" id="XMLID_86_" fill="#000000" fill-rule="nonzero"></path>
                    </g>
                </g>
            </g>
        </g>
    </g>
</svg>